<svg width="78" height="52" viewBox="0 0 78 52" fill="none" xmlns="http://www.w3.org/2000/svg">
<path d="M4.04294 51L26.6509 6.144L29.4589 10.032H0.226938V0.815998H36.5149V7.944L15.0589 51H4.04294ZM68.884 0.815998L56.572 19.248L55.348 17.664C56.116 17.472 56.86 17.304 57.58 17.16C58.3 17.016 59.044 16.944 59.812 16.944C63.076 16.944 66.004 17.712 68.596 19.248C71.236 20.736 73.3 22.776 74.788 25.368C76.324 27.912 77.092 30.792 77.092 34.008C77.092 37.512 76.228 40.608 74.5 43.296C72.82 45.936 70.564 48 67.732 49.488C64.948 50.976 61.852 51.72 58.444 51.72C55.036 51.72 51.892 50.976 49.012 49.488C46.18 48 43.9 45.936 42.172 43.296C40.492 40.608 39.652 37.536 39.652 34.08C39.652 32.448 39.892 30.816 40.372 29.184C40.9 27.552 41.62 26.016 42.532 24.576L57.436 0.815998H68.884ZM58.444 25.728C56.86 25.728 55.396 26.064 54.052 26.736C52.756 27.408 51.724 28.368 50.956 29.616C50.188 30.816 49.804 32.28 49.804 34.008C49.804 35.736 50.188 37.224 50.956 38.472C51.724 39.672 52.756 40.608 54.052 41.28C55.348 41.952 56.812 42.288 58.444 42.288C60.028 42.288 61.468 41.952 62.764 41.28C64.06 40.608 65.092 39.672 65.86 38.472C66.628 37.224 67.012 35.736 67.012 34.008C67.012 32.28 66.628 30.816 65.86 29.616C65.092 28.368 64.06 27.408 62.764 26.736C61.468 26.064 60.028 25.728 58.444 25.728Z" fill="white"/>
</svg>
